<svg id="visual" viewBox="0 0 960 540" width="960" height="540" xmlns="http://www.w3.org/2000/svg" xmlns:xlink="http://www.w3.org/1999/xlink" version="1.1"><rect x="0" y="0" width="960" height="540" fill="#FFFFFF"></rect><path d="M0 376L22.8 383.8C45.7 391.7 91.3 407.3 137 411.3C182.7 415.3 228.3 407.7 274 400.2C319.7 392.7 365.3 385.3 411.2 396.3C457 407.3 503 436.7 548.8 439.2C594.7 441.7 640.3 417.3 686 411.7C731.7 406 777.3 419 823 427.8C868.7 436.7 914.3 441.3 937.2 443.7L960 446L960 541L937.2 541C914.3 541 868.7 541 823 541C777.3 541 731.7 541 686 541C640.3 541 594.7 541 548.8 541C503 541 457 541 411.2 541C365.3 541 319.7 541 274 541C228.3 541 182.7 541 137 541C91.3 541 45.7 541 22.8 541L0 541Z" fill="#0EA5E9" stroke-linecap="round" stroke-linejoin="miter"></path></svg>