<?xml version="1.0" encoding="UTF-8" standalone="no"?>
<svg
   id="visual"
   viewBox="0 0 960 165"
   width="960"
   height="165"
   version="1.1"
   sodipodi:docname="wave-haikei.svg"
   inkscape:export-filename="backgroundedited.svg"
   inkscape:export-xdpi="96"
   inkscape:export-ydpi="96"
   xmlns:inkscape="http://www.inkscape.org/namespaces/inkscape"
   xmlns:sodipodi="http://sodipodi.sourceforge.net/DTD/sodipodi-0.dtd"
   xmlns="http://www.w3.org/2000/svg"
   xmlns:svg="http://www.w3.org/2000/svg">
  <defs
     id="defs18" />
  <sodipodi:namedview
     id="namedview16"
     pagecolor="#ffffff"
     bordercolor="#666666"
     borderopacity="1.0"
     inkscape:showpageshadow="2"
     inkscape:pageopacity="0.0"
     inkscape:pagecheckerboard="0"
     inkscape:deskcolor="#d1d1d1"
     showgrid="false" />
  <path
     d="m 0,0 22.8,7.8 c 22.9,7.9 68.5,23.5 114.2,27.5 45.7,4 91.3,-3.6 137,-11.1 45.7,-7.5 91.3,-14.9 137.2,-3.9 45.8,11 91.8,40.4 137.6,42.9 45.9,2.5 91.5,-21.9 137.2,-27.5 45.7,-5.7 91.3,7.3 137,16.1 45.7,8.9 91.3,13.5 114.2,15.9 L 960,70 v 95 h -22.8 c -22.9,0 -68.5,0 -114.2,0 -45.7,0 -91.3,0 -137,0 -45.7,0 -91.3,0 -137.2,0 -45.8,0 -91.8,0 -137.6,0 -45.9,0 -91.5,0 -137.2,0 -45.7,0 -91.3,0 -137,0 -45.7,0 -91.3,0 -114.2,0 H 0 Z"
     fill="#0ea5e9"
     stroke-linecap="round"
     stroke-linejoin="miter"
     id="path13"
     style="fill:#5048e5;fill-opacity:1" />
</svg>
